# xmcd CD database file
#
# Track frame offsets:
#	150
#	17345
#	27941
#	40282
#	50686
#	60202
#	71418
#	83766
#	98460
#	109191
#	120323
#	129489
#	140319
#	154317
#
# Disc length: 2179 seconds
#
# Revision: 0
# Processed by: cddbd v1.5.2PL0 Copyright (c) Steve Scherf et al.
# Submitted via: CDex 1.70beta2
#
DISCID=a708810e
DTITLE=Marentette, Noel - Cdn. - Chatham, ON - Chatham's Favourite Storyteller 
DYEAR=2007
DGENRE=Country
TTITLE0=Another Night On Music Row
TTITLE1=There's A Little Gypsy In My Soul
TTITLE2=This Bar At Erieau
TTITLE3=Ride Ride That Train
TTITLE4=Your the First One
TTITLE5=When Rosesw Bloom Again
TTITLE6=Tonight Mama Dosn't Have To Cry
TTITLE7=Don't Tell Marina I'm Leaving
TTITLE8=Casey Don't Ride Trains Much Anymore
TTITLE9=Mattie Move On
TTITLE10=Miles and Miles of Troubles
TTITLE11=Miss Raggedy Jane
TTITLE12=Mama's Hands
TTITLE13=Dance Ballerina Dance
EXTD=YEAR: 2007
EXTT0=
EXTT1=
EXTT2=
EXTT3=
EXTT4=
EXTT5=
EXTT6=
EXTT7=
EXTT8=
EXTT9=
EXTT10=
EXTT11=
EXTT12=
EXTT13=
PLAYORDER=
